<svg xmlns="http://www.w3.org/2000/svg" version="1.1" xmlns:xlink="http://www.w3.org/1999/xlink" viewBox="0 0 13.521526784535402 13.9090767845354"><g transform="matrix(0.8571428571428572,0,0,0.8571428571428572,6.203145025917254,11.831847958173201)"><g transform="matrix(1,0,0,1,0,0)" clip-path="url(#SvgjsClipPath188252)"><g clip-path="url(#SvgjsClipPath1882503982f61a-4dbe-4aed-8262-0379e67b4f83)"><path d=" M 3.850649433082234 -11.517938987112835 L 4.1351648925068325 -11.301031161610913 L -4.698899273389632 -1.7373679462988942 L -4.98341473281423 -1.9543884511906882 Z" fill="#000000" transform="matrix(1,0,0,1,0,0)" fill-rule="nonzero"></path></g><g clip-path="url(#SvgjsClipPath1882503982f61a-4dbe-4aed-8262-0379e67b4f83)"><path d=" M -4.877158068165756 -9.813550535922147 L -4.592642608741158 -10.03057104081394 L 4.2414215571553076 -0.46702050489179214 L 3.9570187771205774 -0.25 Z" fill="#000000" transform="matrix(1,0,0,1,0,0)" fill-rule="nonzero"></path></g><g clip-path="url(#SvgjsClipPath1882503982f61a-4dbe-4aed-8262-0379e67b4f83)"><path d=" M 5.522248181820423 -11.517938987112835 L 5.806763641245022 -11.301031161610913 L -4.221138660336047 -0.44504802386692077 L -4.505654119760647 -0.6619558493688462 Z" fill="#000000" transform="matrix(1,0,0,1,0,0)" fill-rule="nonzero"></path></g><g clip-path="url(#SvgjsClipPath1882503982f61a-4dbe-4aed-8262-0379e67b4f83)"><path d=" M -4.505766799150518 -11.301031161610913 L -4.221138660336047 -11.517938987112835 L 5.807327038194378 -0.6619558493688462 L 5.522811578769778 -0.44504802386692255 Z" fill="#000000" transform="matrix(1,0,0,1,0,0)" fill-rule="nonzero"></path></g><g clip-path="url(#SvgjsClipPath1882503982f61a-4dbe-4aed-8262-0379e67b4f83)"><path d=" M 6.000008794874006 -10.199590125620633 L 6.284524254298605 -9.982344261949098 L -2.549539911597858 -0.41901908480669015 L -2.8340553710224565 -0.6359269103086138 Z" fill="#000000" transform="matrix(1,0,0,1,0,0)" fill-rule="nonzero"></path></g><g clip-path="url(#SvgjsClipPath1882503982f61a-4dbe-4aed-8262-0379e67b4f83)"><path d=" M -2.834168050412328 -11.301031161610913 L -2.549539911597858 -11.517938987112835 L 6.284524254298605 -1.9543884511906882 L 6.000008794874006 -1.7373679462988942 Z" fill="#000000" transform="matrix(1,0,0,1,0,0)" fill-rule="nonzero"></path></g></g><g><path d=" M 0.09345 0.0025500000000000106 Q 0.09345 0.0034500000000000086 0.09315000000000001 0.0034500000000000086 Q 0.08820000000000001 0.0034500000000000086 0.08190000000000001 0.008625000000000008 Q 0.0756 0.013800000000000007 0.07065 0.021900000000000003 L 0.05355000000000001 0.04965000000000001 L 0.05355000000000001 0.08325000000000002 Q 0.05355000000000001 0.0879 0.05437500000000001 0.09000000000000001 Q 0.055200000000000006 0.09210000000000002 0.05752500000000001 0.09285000000000002 Q 0.05985000000000001 0.09360000000000002 0.06495000000000001 0.09360000000000002 Q 0.0654 0.09360000000000002 0.0654 0.09450000000000001 Q 0.0654 0.09540000000000001 0.06495000000000001 0.09540000000000001 Q 0.060000000000000005 0.09540000000000001 0.057300000000000004 0.09525000000000002 L 0.04635 0.09510000000000002 L 0.035550000000000005 0.09525000000000002 Q 0.03255 0.09540000000000001 0.027600000000000003 0.09540000000000001 Q 0.0273 0.09540000000000001 0.0273 0.09450000000000001 Q 0.0273 0.09360000000000002 0.027600000000000003 0.09360000000000002 Q 0.0327 0.09360000000000002 0.035025 0.09285000000000002 Q 0.03735 0.09210000000000002 0.038250000000000006 0.089925 Q 0.039150000000000004 0.08775000000000001 0.039150000000000004 0.08325000000000002 L 0.039150000000000004 0.05235000000000001 L 0.01635 0.01755000000000001 Q 0.011250000000000001 0.009600000000000011 0.007575000000000001 0.006525000000000003 Q 0.0039000000000000003 0.0034500000000000086 0.00045000000000000004 0.0034500000000000086 Q 0 0.0034500000000000086 0 0.0025500000000000106 Q 0 0.0016499999999999987 0.00045000000000000004 0.0016499999999999987 L 0.0054 0.00180000000000001 Q 0.008700000000000001 0.0021000000000000046 0.0102 0.0021000000000000046 Q 0.015300000000000001 0.0021000000000000046 0.024600000000000004 0.00180000000000001 L 0.033900000000000007 0.0016499999999999987 Q 0.0342 0.0016499999999999987 0.0342 0.0025500000000000106 Q 0.0342 0.0034500000000000086 0.033900000000000007 0.0034500000000000086 Q 0.027750000000000004 0.0034500000000000086 0.027750000000000004 0.007650000000000004 Q 0.027750000000000004 0.009750000000000009 0.029550000000000003 0.012450000000000003 L 0.051300000000000005 0.04590000000000001 L 0.0666 0.020850000000000007 Q 0.07035000000000001 0.014700000000000005 0.07035000000000001 0.010050000000000003 Q 0.07035000000000001 0.0034500000000000086 0.0621 0.0034500000000000086 Q 0.06180000000000001 0.0034500000000000086 0.06180000000000001 0.0025500000000000106 Q 0.06180000000000001 0.0016499999999999987 0.0621 0.0016499999999999987 L 0.0699 0.00180000000000001 Q 0.0762 0.0021000000000000046 0.08145000000000001 0.0021000000000000046 Q 0.084 0.0021000000000000046 0.08760000000000001 0.00180000000000001 L 0.09315000000000001 0.0016499999999999987 Q 0.09345 0.0016499999999999987 0.09345 0.0025500000000000106 M 0.09510637207031251 0.09307500000000002 Q 0.08820637207031251 0.08880000000000002 0.08445637207031251 0.08152500000000001 Q 0.0807063720703125 0.07425000000000001 0.0807063720703125 0.06570000000000001 Q 0.0807063720703125 0.05595000000000001 0.08558137207031251 0.04912500000000001 Q 0.09045637207031251 0.042300000000000004 0.09803137207031251 0.03892500000000001 Q 0.10560637207031251 0.035550000000000005 0.11355637207031251 0.035550000000000005 Q 0.12270637207031251 0.035550000000000005 0.1295313720703125 0.039900000000000005 Q 0.1363563720703125 0.044250000000000005 0.13995637207031253 0.05137500000000001 Q 0.14355637207031252 0.05850000000000001 0.14355637207031252 0.0666 Q 0.14355637207031252 0.07560000000000001 0.1391313720703125 0.08265000000000002 Q 0.1347063720703125 0.08970000000000002 0.12720637207031252 0.09352500000000001 Q 0.11970637207031251 0.09735 0.11100637207031251 0.09735 Q 0.10200637207031252 0.09735 0.09510637207031251 0.09307500000000002 M 0.1256313720703125 0.08850000000000001 Q 0.1291563720703125 0.08265000000000002 0.1291563720703125 0.07140000000000002 Q 0.1291563720703125 0.06135000000000001 0.12638137207031253 0.05385000000000001 Q 0.12360637207031251 0.04635000000000001 0.11888137207031252 0.04245000000000001 Q 0.11415637207031251 0.03855000000000001 0.10860637207031251 0.03855000000000001 Q 0.1018563720703125 0.03855000000000001 0.09840637207031251 0.04410000000000001 Q 0.09495637207031252 0.04965000000000001 0.09495637207031252 0.06045000000000001 Q 0.09495637207031252 0.07020000000000001 0.0975813720703125 0.07792500000000001 Q 0.10020637207031251 0.08565 0.10493137207031251 0.09000000000000001 Q 0.10965637207031251 0.09435000000000002 0.1155063720703125 0.09435000000000002 Q 0.12210637207031251 0.09435000000000002 0.1256313720703125 0.08850000000000001 M 0.222759814453125 0.08595000000000001 Q 0.223209814453125 0.08595000000000001 0.223509814453125 0.08670000000000001 Q 0.223809814453125 0.08745000000000001 0.22335981445312503 0.08775000000000001 L 0.203709814453125 0.09720000000000001 L 0.203109814453125 0.09735 Q 0.201609814453125 0.09735 0.200409814453125 0.09397500000000002 Q 0.199209814453125 0.09060000000000001 0.199059814453125 0.08490000000000002 Q 0.188559814453125 0.09705000000000001 0.176859814453125 0.09705000000000001 Q 0.168759814453125 0.09705000000000001 0.16425981445312499 0.09202500000000001 Q 0.159759814453125 0.08700000000000001 0.159759814453125 0.07830000000000001 L 0.159759814453125 0.05595000000000001 Q 0.159759814453125 0.045750000000000006 0.155109814453125 0.045750000000000006 Q 0.153609814453125 0.045750000000000006 0.150909814453125 0.046950000000000006 L 0.150759814453125 0.046950000000000006 Q 0.150159814453125 0.046950000000000006 0.149859814453125 0.046200000000000005 Q 0.149559814453125 0.04545000000000001 0.150009814453125 0.04515000000000001 L 0.169059814453125 0.036300000000000006 L 0.169659814453125 0.03615000000000001 Q 0.170259814453125 0.03615000000000001 0.171009814453125 0.036750000000000005 Q 0.171759814453125 0.03735000000000001 0.171759814453125 0.03780000000000001 L 0.171759814453125 0.07185000000000001 Q 0.171759814453125 0.08850000000000001 0.184359814453125 0.08850000000000001 Q 0.188109814453125 0.08850000000000001 0.192009814453125 0.08670000000000001 Q 0.195909814453125 0.08490000000000002 0.199059814453125 0.08175000000000002 L 0.199059814453125 0.05595000000000001 Q 0.199059814453125 0.05070000000000001 0.197934814453125 0.04822500000000001 Q 0.196809814453125 0.045750000000000006 0.194409814453125 0.045750000000000006 Q 0.193059814453125 0.045750000000000006 0.19020981445312501 0.046950000000000006 L 0.190059814453125 0.046950000000000006 Q 0.18945981445312501 0.046950000000000006 0.18915981445312502 0.046125000000000006 Q 0.188859814453125 0.04530000000000001 0.18945981445312501 0.04515000000000001 L 0.20835981445312501 0.036300000000000006 Q 0.208659814453125 0.03615000000000001 0.20910981445312501 0.03615000000000001 Q 0.209709814453125 0.03615000000000001 0.210459814453125 0.036750000000000005 Q 0.211209814453125 0.03735000000000001 0.211209814453125 0.03780000000000001 L 0.211209814453125 0.07845 Q 0.211209814453125 0.08370000000000001 0.212259814453125 0.08580000000000002 Q 0.21330981445312502 0.0879 0.215709814453125 0.0879 Q 0.217509814453125 0.0879 0.22245981445312502 0.08610000000000001 L 0.222759814453125 0.08595000000000001 M 0.273756298828125 0.038250000000000006 Q 0.276906298828125 0.04050000000000001 0.276906298828125 0.04365000000000001 Q 0.276906298828125 0.04650000000000001 0.27518129882812503 0.04830000000000001 Q 0.273456298828125 0.050100000000000006 0.270456298828125 0.050100000000000006 Q 0.268506298828125 0.050100000000000006 0.267231298828125 0.049275000000000006 Q 0.265956298828125 0.04845000000000001 0.26460629882812503 0.046950000000000006 Q 0.263256298828125 0.04560000000000001 0.262206298828125 0.04492500000000001 Q 0.261156298828125 0.044250000000000005 0.259656298828125 0.044250000000000005 Q 0.258006298828125 0.044250000000000005 0.256131298828125 0.04552500000000001 Q 0.254256298828125 0.04680000000000001 0.250356298828125 0.050850000000000006 L 0.250356298828125 0.08325000000000002 Q 0.250356298828125 0.08745000000000001 0.251556298828125 0.08962500000000001 Q 0.252756298828125 0.0918 0.255606298828125 0.09270000000000002 Q 0.258456298828125 0.09360000000000002 0.264006298828125 0.09360000000000002 Q 0.26460629882812503 0.09360000000000002 0.26460629882812503 0.09450000000000001 Q 0.26460629882812503 0.09540000000000001 0.264006298828125 0.09540000000000001 Q 0.25905629882812503 0.09540000000000001 0.25605629882812503 0.09525000000000002 L 0.244206298828125 0.09510000000000002 L 0.23550629882812502 0.09525000000000002 Q 0.233406298828125 0.09540000000000001 0.229656298828125 0.09540000000000001 Q 0.22920629882812502 0.09540000000000001 0.22920629882812502 0.09450000000000001 Q 0.22920629882812502 0.09360000000000002 0.229656298828125 0.09360000000000002 Q 0.23475629882812502 0.09360000000000002 0.236406298828125 0.09150000000000001 Q 0.238056298828125 0.08940000000000001 0.238056298828125 0.08325000000000002 L 0.238056298828125 0.05460000000000001 Q 0.238056298828125 0.04980000000000001 0.236931298828125 0.04755000000000001 Q 0.235806298828125 0.04530000000000001 0.233256298828125 0.04530000000000001 Q 0.231006298828125 0.04530000000000001 0.225756298828125 0.04755000000000001 L 0.225606298828125 0.04755000000000001 Q 0.225006298828125 0.04755000000000001 0.224706298828125 0.04680000000000001 Q 0.22440629882812502 0.04605000000000001 0.224856298828125 0.04590000000000001 L 0.244506298828125 0.036300000000000006 Q 0.245406298828125 0.036000000000000004 0.24555629882812502 0.036000000000000004 Q 0.24705629882812502 0.036000000000000004 0.24855629882812502 0.03922500000000001 Q 0.250056298828125 0.04245000000000001 0.250356298828125 0.047700000000000006 Q 0.256206298828125 0.041100000000000005 0.260106298828125 0.03855000000000001 Q 0.264006298828125 0.036000000000000004 0.267156298828125 0.036000000000000004 Q 0.27060629882812504 0.036000000000000004 0.273756298828125 0.038250000000000006 M 0.3912861328125 0.0012000000000000066 Q 0.3985611328125 0.0023999999999999994 0.40276113281250003 0.004500000000000004 Q 0.4041111328125 0.00495000000000001 0.4044861328125 0.005625000000000005 Q 0.4048611328125 0.0063 0.4050111328125 0.007949999999999999 L 0.40681113281250003 0.027450000000000002 Q 0.40681113281250003 0.027900000000000008 0.4060611328125 0.028050000000000005 Q 0.4053111328125 0.028200000000000003 0.4051611328125 0.0276 Q 0.4008111328125 0.01590000000000001 0.3920361328125 0.009750000000000009 Q 0.3832611328125 0.003600000000000006 0.3714111328125 0.003600000000000006 Q 0.3558111328125 0.003600000000000006 0.3469611328125 0.014550000000000007 Q 0.3381111328125 0.02550000000000001 0.3381111328125 0.04395000000000001 Q 0.3381111328125 0.05775000000000001 0.3429861328125 0.06930000000000001 Q 0.3478611328125 0.08085 0.35648613281249997 0.08760000000000001 Q 0.3651111328125 0.09435000000000002 0.3757611328125 0.09435000000000002 Q 0.3960111328125 0.09435000000000002 0.4065111328125 0.06915000000000002 Q 0.4066611328125 0.06855000000000001 0.4074861328125 0.06870000000000001 Q 0.4083111328125 0.06885000000000001 0.4083111328125 0.06930000000000001 L 0.4060611328125 0.08850000000000001 Q 0.40576113281250004 0.09030000000000002 0.4053861328125 0.09082500000000002 Q 0.4050111328125 0.09135000000000001 0.4036611328125 0.09195000000000002 Q 0.3906111328125 0.09720000000000001 0.3759111328125 0.09720000000000001 Q 0.3576111328125 0.09720000000000001 0.3454611328125 0.089925 Q 0.3333111328125 0.08265000000000002 0.3275361328125 0.07140000000000002 Q 0.3217611328125 0.06015000000000001 0.3217611328125 0.04800000000000001 Q 0.3217611328125 0.033900000000000007 0.3294861328125 0.022950000000000012 Q 0.3372111328125 0.01200000000000001 0.3499611328125 0.006000000000000005 Q 0.3627111328125 0 0.3772611328125 0 Q 0.3840111328125 0 0.3912861328125 0.0012000000000000066 M 0.43396208496093747 0.09307500000000002 Q 0.4270620849609375 0.08880000000000002 0.4233120849609375 0.08152500000000001 Q 0.4195620849609375 0.07425000000000001 0.4195620849609375 0.06570000000000001 Q 0.4195620849609375 0.05595000000000001 0.42443708496093746 0.04912500000000001 Q 0.4293120849609375 0.042300000000000004 0.4368870849609375 0.03892500000000001 Q 0.4444620849609375 0.035550000000000005 0.4524120849609375 0.035550000000000005 Q 0.4615620849609375 0.035550000000000005 0.4683870849609375 0.039900000000000005 Q 0.4752120849609375 0.044250000000000005 0.4788120849609375 0.05137500000000001 Q 0.4824120849609375 0.05850000000000001 0.4824120849609375 0.0666 Q 0.4824120849609375 0.07560000000000001 0.4779870849609375 0.08265000000000002 Q 0.4735620849609375 0.08970000000000002 0.4660620849609375 0.09352500000000001 Q 0.4585620849609375 0.09735 0.4498620849609375 0.09735 Q 0.4408620849609375 0.09735 0.43396208496093747 0.09307500000000002 M 0.4644870849609375 0.08850000000000001 Q 0.4680120849609375 0.08265000000000002 0.4680120849609375 0.07140000000000002 Q 0.4680120849609375 0.06135000000000001 0.4652370849609375 0.05385000000000001 Q 0.4624620849609375 0.04635000000000001 0.4577370849609375 0.04245000000000001 Q 0.4530120849609375 0.03855000000000001 0.4474620849609375 0.03855000000000001 Q 0.4407120849609375 0.03855000000000001 0.4372620849609375 0.04410000000000001 Q 0.4338120849609375 0.04965000000000001 0.4338120849609375 0.06045000000000001 Q 0.4338120849609375 0.07020000000000001 0.43643708496093747 0.07792500000000001 Q 0.4390620849609375 0.08565 0.4437870849609375 0.09000000000000001 Q 0.4485120849609375 0.09435000000000002 0.4543620849609375 0.09435000000000002 Q 0.4609620849609375 0.09435000000000002 0.4644870849609375 0.08850000000000001 M 0.60091552734375 0.09450000000000001 Q 0.60091552734375 0.09540000000000001 0.60031552734375 0.09540000000000001 Q 0.59656552734375 0.09540000000000001 0.59431552734375 0.09525000000000002 L 0.58576552734375 0.09510000000000002 L 0.57721552734375 0.09525000000000002 Q 0.57496552734375 0.09540000000000001 0.57121552734375 0.09540000000000001 Q 0.57076552734375 0.09540000000000001 0.57076552734375 0.09450000000000001 Q 0.57076552734375 0.09360000000000002 0.57121552734375 0.09360000000000002 Q 0.57616552734375 0.09360000000000002 0.5779655273437501 0.091425 Q 0.57976552734375 0.08925000000000001 0.57976552734375 0.08325000000000002 L 0.57976552734375 0.06090000000000001 Q 0.57976552734375 0.05250000000000001 0.57684052734375 0.04845000000000001 Q 0.57391552734375 0.04440000000000001 0.56791552734375 0.04440000000000001 Q 0.5638655273437501 0.04440000000000001 0.55981552734375 0.04635000000000001 Q 0.55576552734375 0.04830000000000001 0.55276552734375 0.05160000000000001 L 0.55276552734375 0.05310000000000001 L 0.55276552734375 0.08325000000000002 Q 0.55276552734375 0.08940000000000001 0.55449052734375 0.09150000000000001 Q 0.55621552734375 0.09360000000000002 0.56131552734375 0.09360000000000002 Q 0.56176552734375 0.09360000000000002 0.56176552734375 0.09450000000000001 Q 0.56176552734375 0.09540000000000001 0.56131552734375 0.09540000000000001 Q 0.55756552734375 0.09540000000000001 0.55531552734375 0.09525000000000002 L 0.54661552734375 0.09510000000000002 L 0.53806552734375 0.09525000000000002 Q 0.53581552734375 0.09540000000000001 0.53206552734375 0.09540000000000001 Q 0.53161552734375 0.09540000000000001 0.53161552734375 0.09450000000000001 Q 0.53161552734375 0.09360000000000002 0.53206552734375 0.09360000000000002 Q 0.53716552734375 0.09360000000000002 0.53889052734375 0.09150000000000001 Q 0.54061552734375 0.08940000000000001 0.54061552734375 0.08325000000000002 L 0.54061552734375 0.06090000000000001 Q 0.54061552734375 0.05250000000000001 0.53769052734375 0.04845000000000001 Q 0.53476552734375 0.04440000000000001 0.52876552734375 0.04440000000000001 Q 0.52501552734375 0.04440000000000001 0.52111552734375 0.046200000000000005 Q 0.51721552734375 0.04800000000000001 0.51421552734375 0.05100000000000001 L 0.51421552734375 0.08325000000000002 Q 0.51421552734375 0.08940000000000001 0.51586552734375 0.09150000000000001 Q 0.51751552734375 0.09360000000000002 0.52261552734375 0.09360000000000002 Q 0.52306552734375 0.09360000000000002 0.52306552734375 0.09450000000000001 Q 0.52306552734375 0.09540000000000001 0.52261552734375 0.09540000000000001 Q 0.51886552734375 0.09540000000000001 0.51676552734375 0.09525000000000002 L 0.50806552734375 0.09510000000000002 L 0.49936552734375 0.09525000000000002 Q 0.49726552734375 0.09540000000000001 0.49351552734375 0.09540000000000001 Q 0.49306552734375 0.09540000000000001 0.49306552734375 0.09450000000000001 Q 0.49306552734375 0.09360000000000002 0.49351552734375 0.09360000000000002 Q 0.49861552734375 0.09360000000000002 0.50026552734375 0.09150000000000001 Q 0.50191552734375 0.08940000000000001 0.50191552734375 0.08325000000000002 L 0.50191552734375 0.05460000000000001 Q 0.50191552734375 0.04980000000000001 0.50079052734375 0.04755000000000001 Q 0.49966552734374997 0.04530000000000001 0.49711552734375 0.04530000000000001 Q 0.49486552734375 0.04530000000000001 0.48961552734374997 0.04755000000000001 L 0.48946552734375 0.04755000000000001 Q 0.48886552734375 0.04755000000000001 0.48856552734375 0.04680000000000001 Q 0.48826552734375 0.04605000000000001 0.48871552734375 0.04590000000000001 L 0.50836552734375 0.036300000000000006 Q 0.50926552734375 0.036000000000000004 0.50941552734375 0.036000000000000004 Q 0.51091552734375 0.036000000000000004 0.51249052734375 0.03937500000000001 Q 0.51406552734375 0.04275000000000001 0.51421552734375 0.048150000000000005 Q 0.52426552734375 0.03585000000000001 0.53611552734375 0.03585000000000001 Q 0.54301552734375 0.03585000000000001 0.54721552734375 0.03922500000000001 Q 0.55141552734375 0.042600000000000006 0.55246552734375 0.04905000000000001 Q 0.56311552734375 0.03585000000000001 0.57526552734375 0.03585000000000001 Q 0.58321552734375 0.03585000000000001 0.58749052734375 0.04042500000000001 Q 0.59176552734375 0.045000000000000005 0.59176552734375 0.05430000000000001 L 0.59176552734375 0.08325000000000002 Q 0.59176552734375 0.08940000000000001 0.59349052734375 0.09150000000000001 Q 0.59521552734375 0.09360000000000002 0.60031552734375 0.09360000000000002 Q 0.60091552734375 0.09360000000000002 0.60091552734375 0.09450000000000001 M 0.62806142578125 0.09510000000000002 L 0.62806142578125 0.12450000000000001 Q 0.62806142578125 0.129 0.62911142578125 0.13110000000000002 Q 0.63016142578125 0.1332 0.63301142578125 0.134025 Q 0.63586142578125 0.13485000000000003 0.64201142578125 0.13485000000000003 Q 0.64231142578125 0.13485000000000003 0.64231142578125 0.13575 Q 0.64231142578125 0.13665000000000002 0.64201142578125 0.13665000000000002 Q 0.63661142578125 0.13665000000000002 0.63361142578125 0.1365 L 0.62191142578125 0.13635000000000003 L 0.61336142578125 0.1365 Q 0.61111142578125 0.13665000000000002 0.60721142578125 0.13665000000000002 Q 0.60676142578125 0.13665000000000002 0.60676142578125 0.13575 Q 0.60676142578125 0.13485000000000003 0.60721142578125 0.13485000000000003 Q 0.61096142578125 0.13485000000000003 0.61276142578125 0.134025 Q 0.61456142578125 0.1332 0.61523642578125 0.13110000000000002 Q 0.61591142578125 0.129 0.61591142578125 0.12450000000000001 L 0.61591142578125 0.05475000000000001 Q 0.61591142578125 0.04980000000000001 0.61478642578125 0.04755000000000001 Q 0.61366142578125 0.04530000000000001 0.61096142578125 0.04530000000000001 Q 0.60841142578125 0.04530000000000001 0.60376142578125 0.04740000000000001 L 0.60346142578125 0.04740000000000001 Q 0.60286142578125 0.04740000000000001 0.60256142578125 0.04672500000000001 Q 0.60226142578125 0.04605000000000001 0.60256142578125 0.045750000000000006 L 0.62236142578125 0.036300000000000006 Q 0.6226614257812499 0.03615000000000001 0.62326142578125 0.03615000000000001 Q 0.62491142578125 0.03615000000000001 0.62626142578125 0.03892500000000001 Q 0.62761142578125 0.04170000000000001 0.62791142578125 0.04650000000000001 Q 0.63946142578125 0.035550000000000005 0.65131142578125 0.035550000000000005 Q 0.65761142578125 0.035550000000000005 0.66301142578125 0.03885000000000001 Q 0.66841142578125 0.04215000000000001 0.67163642578125 0.04845000000000001 Q 0.67486142578125 0.05475000000000001 0.67486142578125 0.06315000000000001 Q 0.67486142578125 0.07500000000000001 0.66983642578125 0.08265000000000002 Q 0.66481142578125 0.09030000000000002 0.65731142578125 0.093825 Q 0.64981142578125 0.09735 0.64201142578125 0.09735 Q 0.63481142578125 0.09735 0.62806142578125 0.09510000000000002 M 0.62806142578125 0.04950000000000001 L 0.62806142578125 0.04980000000000001 L 0.62806142578125 0.08565 Q 0.63166142578125 0.08955000000000002 0.63563642578125 0.09165000000000001 Q 0.63961142578125 0.09375000000000001 0.64531142578125 0.09375000000000001 Q 0.65281142578125 0.09375000000000001 0.65716142578125 0.08722500000000001 Q 0.66151142578125 0.08070000000000001 0.66151142578125 0.06780000000000001 Q 0.66151142578125 0.05595000000000001 0.65611142578125 0.04950000000000001 Q 0.65071142578125 0.043050000000000005 0.64261142578125 0.043050000000000005 Q 0.63496142578125 0.043050000000000005 0.62806142578125 0.04950000000000001 M 0.7521150146484376 0.08595000000000001 Q 0.7527150146484376 0.08595000000000001 0.7530900146484375 0.08662500000000001 Q 0.7534650146484375 0.08730000000000002 0.7530150146484376 0.08760000000000001 L 0.7333650146484375 0.09705000000000001 Q 0.7330650146484375 0.09720000000000001 0.7326150146484376 0.09720000000000001 Q 0.7312650146484375 0.09720000000000001 0.7301400146484376 0.0942 Q 0.7290150146484375 0.09120000000000002 0.7287150146484376 0.0864 Q 0.7236150146484376 0.09135000000000001 0.7183650146484375 0.09427500000000001 Q 0.7131150146484375 0.09720000000000001 0.7068150146484375 0.09720000000000001 Q 0.7008150146484375 0.09720000000000001 0.6957150146484375 0.09412500000000001 Q 0.6906150146484376 0.09105 0.6876150146484376 0.085125 Q 0.6846150146484375 0.0792 0.6846150146484375 0.07095000000000001 Q 0.6846150146484375 0.060300000000000006 0.6896400146484375 0.05227500000000001 Q 0.6946650146484376 0.044250000000000005 0.7026900146484375 0.03997500000000001 Q 0.7107150146484376 0.03570000000000001 0.7194150146484375 0.03570000000000001 Q 0.7278150146484376 0.03570000000000001 0.7339650146484376 0.03975000000000001 Q 0.7371150146484375 0.038250000000000006 0.7392150146484375 0.03585000000000001 Q 0.7393650146484375 0.03570000000000001 0.7396650146484376 0.03570000000000001 Q 0.7399650146484376 0.03570000000000001 0.7403400146484376 0.035925000000000006 Q 0.7407150146484376 0.03615000000000001 0.7407150146484376 0.03645000000000001 L 0.7407150146484376 0.0792 Q 0.7407150146484376 0.08385000000000001 0.7417650146484376 0.08580000000000002 Q 0.7428150146484376 0.08775000000000001 0.7452150146484375 0.08775000000000001 Q 0.7477650146484376 0.08775000000000001 0.7519650146484376 0.08595000000000001 L 0.7521150146484376 0.08595000000000001 M 0.7285650146484376 0.08385000000000001 L 0.7285650146484376 0.08325000000000002 L 0.7285650146484376 0.05190000000000001 Q 0.7285650146484376 0.046200000000000005 0.7248150146484376 0.04245000000000001 Q 0.7210650146484375 0.038700000000000005 0.7155150146484376 0.038700000000000005 Q 0.7077150146484376 0.038700000000000005 0.7029900146484376 0.04635000000000001 Q 0.6982650146484375 0.054000000000000006 0.6982650146484375 0.06615000000000001 Q 0.6982650146484375 0.07740000000000001 0.7023900146484375 0.08385000000000001 Q 0.7065150146484376 0.09030000000000002 0.7137150146484376 0.09030000000000002 Q 0.7203150146484375 0.09030000000000002 0.7285650146484376 0.08385000000000001 M 0.8290635498046874 0.09450000000000001 Q 0.8290635498046874 0.09540000000000001 0.8286135498046875 0.09540000000000001 Q 0.8248635498046875 0.09540000000000001 0.8227635498046875 0.09525000000000002 L 0.8140635498046875 0.09510000000000002 L 0.8055135498046875 0.09525000000000002 Q 0.8032635498046875 0.09540000000000001 0.7995135498046875 0.09540000000000001 Q 0.7990635498046875 0.09540000000000001 0.7990635498046875 0.09450000000000001 Q 0.7990635498046875 0.09360000000000002 0.7995135498046875 0.09360000000000002 Q 0.8046135498046875 0.09360000000000002 0.8062635498046875 0.09150000000000001 Q 0.8079135498046874 0.08940000000000001 0.8079135498046874 0.08325000000000002 L 0.8079135498046874 0.06075000000000001 Q 0.8079135498046874 0.05235000000000001 0.8048385498046875 0.04837500000000001 Q 0.8017635498046874 0.04440000000000001 0.7951635498046875 0.04440000000000001 Q 0.7912635498046875 0.04440000000000001 0.7872135498046875 0.046200000000000005 Q 0.7831635498046875 0.04800000000000001 0.7798635498046875 0.05100000000000001 L 0.7798635498046875 0.08325000000000002 Q 0.7798635498046875 0.08940000000000001 0.7815135498046875 0.09150000000000001 Q 0.7831635498046875 0.09360000000000002 0.7882635498046875 0.09360000000000002 Q 0.7887135498046874 0.09360000000000002 0.7887135498046874 0.09450000000000001 Q 0.7887135498046874 0.09540000000000001 0.7882635498046875 0.09540000000000001 Q 0.7845135498046875 0.09540000000000001 0.7824135498046875 0.09525000000000002 L 0.7737135498046875 0.09510000000000002 L 0.7650135498046875 0.09525000000000002 Q 0.7629135498046875 0.09540000000000001 0.7591635498046875 0.09540000000000001 Q 0.7587135498046875 0.09540000000000001 0.7587135498046875 0.09450000000000001 Q 0.7587135498046875 0.09360000000000002 0.7591635498046875 0.09360000000000002 Q 0.7642635498046875 0.09360000000000002 0.7659135498046875 0.09150000000000001 Q 0.7675635498046874 0.08940000000000001 0.7675635498046874 0.08325000000000002 L 0.7675635498046874 0.05460000000000001 Q 0.7675635498046874 0.04980000000000001 0.7664385498046875 0.04755000000000001 Q 0.7653135498046875 0.04530000000000001 0.7627635498046875 0.04530000000000001 Q 0.7605135498046874 0.04530000000000001 0.7552635498046875 0.04755000000000001 L 0.7551135498046875 0.04755000000000001 Q 0.7545135498046874 0.04755000000000001 0.7542135498046875 0.04680000000000001 Q 0.7539135498046875 0.04605000000000001 0.7543635498046874 0.04590000000000001 L 0.7740135498046875 0.036300000000000006 Q 0.7749135498046875 0.036000000000000004 0.7750635498046875 0.036000000000000004 Q 0.7765635498046874 0.036000000000000004 0.7781385498046874 0.03937500000000001 Q 0.7797135498046874 0.04275000000000001 0.7798635498046875 0.048150000000000005 Q 0.7903635498046875 0.03570000000000001 0.8026635498046875 0.03570000000000001 Q 0.8109135498046876 0.03570000000000001 0.8155635498046875 0.040725000000000004 Q 0.8202135498046875 0.045750000000000006 0.8202135498046875 0.05430000000000001 L 0.8202135498046875 0.08325000000000002 Q 0.8202135498046875 0.08940000000000001 0.8218635498046875 0.09150000000000001 Q 0.8235135498046875 0.09360000000000002 0.8286135498046875 0.09360000000000002 Q 0.8290635498046874 0.09360000000000002 0.8290635498046874 0.09450000000000001 M 0.894615087890625 0.036750000000000005 Q 0.8953650878906251 0.03735000000000001 0.8953650878906251 0.03780000000000001 L 0.8953650878906251 0.10590000000000001 Q 0.8953650878906251 0.12030000000000002 0.8874150878906251 0.128925 Q 0.879465087890625 0.13755 0.863865087890625 0.13755 Q 0.854865087890625 0.13755 0.848565087890625 0.13440000000000002 Q 0.842265087890625 0.13125 0.842265087890625 0.1257 Q 0.842265087890625 0.12285000000000001 0.844140087890625 0.12112500000000001 Q 0.8460150878906251 0.1194 0.8490150878906251 0.1194 Q 0.8521650878906251 0.1194 0.8539650878906251 0.12097500000000001 Q 0.855765087890625 0.12255000000000002 0.8581650878906251 0.12615 Q 0.860715087890625 0.1302 0.863340087890625 0.13230000000000003 Q 0.865965087890625 0.13440000000000002 0.870765087890625 0.13440000000000002 Q 0.876615087890625 0.13440000000000002 0.879915087890625 0.12915000000000001 Q 0.8832150878906251 0.12390000000000001 0.8832150878906251 0.10950000000000001 L 0.8832150878906251 0.08490000000000002 Q 0.8722650878906251 0.09705000000000001 0.8602650878906251 0.09705000000000001 Q 0.8521650878906251 0.09705000000000001 0.847665087890625 0.09202500000000001 Q 0.843165087890625 0.08700000000000001 0.843165087890625 0.07830000000000001 L 0.843165087890625 0.05595000000000001 Q 0.843165087890625 0.05070000000000001 0.8421150878906251 0.04822500000000001 Q 0.8410650878906251 0.045750000000000006 0.838665087890625 0.045750000000000006 Q 0.837165087890625 0.045750000000000006 0.834465087890625 0.046950000000000006 L 0.834315087890625 0.046950000000000006 Q 0.833715087890625 0.046950000000000006 0.833415087890625 0.046200000000000005 Q 0.833115087890625 0.04545000000000001 0.833565087890625 0.04515000000000001 L 0.852615087890625 0.036300000000000006 L 0.8532150878906251 0.03615000000000001 Q 0.853815087890625 0.03615000000000001 0.8546400878906251 0.036750000000000005 Q 0.855465087890625 0.03735000000000001 0.855465087890625 0.03780000000000001 L 0.855465087890625 0.07185000000000001 Q 0.855465087890625 0.08025000000000002 0.858390087890625 0.08422500000000001 Q 0.861315087890625 0.08820000000000001 0.867615087890625 0.08820000000000001 Q 0.871515087890625 0.08820000000000001 0.875715087890625 0.08647500000000001 Q 0.879915087890625 0.08475 0.8832150878906251 0.08175000000000002 L 0.8832150878906251 0.05595000000000001 Q 0.8832150878906251 0.05070000000000001 0.882090087890625 0.04822500000000001 Q 0.880965087890625 0.045750000000000006 0.878565087890625 0.045750000000000006 Q 0.8772150878906251 0.045750000000000006 0.874515087890625 0.046950000000000006 L 0.8743650878906251 0.046950000000000006 Q 0.873765087890625 0.046950000000000006 0.873390087890625 0.046200000000000005 Q 0.873015087890625 0.04545000000000001 0.873615087890625 0.04515000000000001 L 0.8925150878906251 0.036300000000000006 L 0.893265087890625 0.03615000000000001 Q 0.893865087890625 0.03615000000000001 0.894615087890625 0.036750000000000005 M 1.048069189453125 0.0025500000000000106 Q 1.048069189453125 0.0034500000000000086 1.0477691894531251 0.0034500000000000086 Q 1.0417691894531251 0.0034500000000000086 1.038469189453125 0.00772500000000001 Q 1.0351691894531252 0.01200000000000001 1.0351691894531252 0.01995000000000001 L 1.0351691894531252 0.09750000000000002 Q 1.0351691894531252 0.09795000000000001 1.0344191894531252 0.0981 Q 1.0336691894531251 0.09825000000000002 1.0333691894531252 0.09795000000000001 L 0.9630191894531251 0.016200000000000006 L 0.9630191894531251 0.07725000000000001 Q 0.9630191894531251 0.08520000000000001 0.9661691894531251 0.08940000000000001 Q 0.9693191894531251 0.09360000000000002 0.9753191894531251 0.09360000000000002 Q 0.9756191894531251 0.09360000000000002 0.9756191894531251 0.09450000000000001 Q 0.9756191894531251 0.09540000000000001 0.9753191894531251 0.09540000000000001 Q 0.9712691894531251 0.09540000000000001 0.9691691894531251 0.09525000000000002 L 0.9612191894531251 0.09510000000000002 L 0.9523691894531251 0.09525000000000002 Q 0.9499691894531251 0.09540000000000001 0.9454691894531251 0.09540000000000001 Q 0.9450191894531251 0.09540000000000001 0.9450191894531251 0.09450000000000001 Q 0.9450191894531251 0.09360000000000002 0.9454691894531251 0.09360000000000002 Q 0.9519191894531251 0.09360000000000002 0.9554441894531251 0.08940000000000001 Q 0.9589691894531251 0.08520000000000001 0.9589691894531251 0.07725000000000001 L 0.9589691894531251 0.011550000000000005 Q 0.9547691894531251 0.007050000000000001 0.9513941894531251 0.005250000000000005 Q 0.9480191894531251 0.0034500000000000086 0.9444191894531251 0.0034500000000000086 Q 0.9441191894531251 0.0034500000000000086 0.9441191894531251 0.0025500000000000106 Q 0.9441191894531251 0.0016499999999999987 0.9444191894531251 0.0016499999999999987 L 0.9504191894531251 0.00180000000000001 Q 0.9523691894531251 0.0019500000000000073 0.9559691894531251 0.0019500000000000073 L 0.9655691894531251 0.00180000000000001 Q 0.9673691894531251 0.0016499999999999987 0.9699191894531252 0.0016499999999999987 Q 0.9711191894531251 0.0016499999999999987 0.9717191894531251 0.002250000000000002 Q 0.9723191894531251 0.0028500000000000053 0.9735191894531251 0.004650000000000001 Q 0.9760691894531252 0.00810000000000001 0.9772691894531251 0.00945 L 1.031119189453125 0.07305 L 1.031119189453125 0.01995000000000001 Q 1.031119189453125 0.01200000000000001 1.027969189453125 0.00772500000000001 Q 1.0248191894531251 0.0034500000000000086 1.0189691894531252 0.0034500000000000086 Q 1.018669189453125 0.0034500000000000086 1.018669189453125 0.0025500000000000106 Q 1.018669189453125 0.0016499999999999987 1.0189691894531252 0.0016499999999999987 L 1.025119189453125 0.00180000000000001 Q 1.0299191894531252 0.0021000000000000046 1.0330691894531252 0.0021000000000000046 Q 1.036069189453125 0.0021000000000000046 1.0411691894531252 0.00180000000000001 L 1.0477691894531251 0.0016499999999999987 Q 1.048069189453125 0.0016499999999999987 1.048069189453125 0.0025500000000000106 M 1.1223183837890625 0.08595000000000001 Q 1.1229183837890626 0.08595000000000001 1.1232933837890626 0.08662500000000001 Q 1.1236683837890626 0.08730000000000002 1.1232183837890626 0.08760000000000001 L 1.1035683837890626 0.09705000000000001 Q 1.1032683837890627 0.09720000000000001 1.1028183837890626 0.09720000000000001 Q 1.1014683837890626 0.09720000000000001 1.1003433837890626 0.0942 Q 1.0992183837890626 0.09120000000000002 1.0989183837890626 0.0864 Q 1.0938183837890625 0.09135000000000001 1.0885683837890625 0.09427500000000001 Q 1.0833183837890625 0.09720000000000001 1.0770183837890626 0.09720000000000001 Q 1.0710183837890626 0.09720000000000001 1.0659183837890625 0.09412500000000001 Q 1.0608183837890626 0.09105 1.0578183837890625 0.085125 Q 1.0548183837890626 0.0792 1.0548183837890626 0.07095000000000001 Q 1.0548183837890626 0.060300000000000006 1.0598433837890626 0.05227500000000001 Q 1.0648683837890625 0.044250000000000005 1.0728933837890626 0.03997500000000001 Q 1.0809183837890626 0.03570000000000001 1.0896183837890625 0.03570000000000001 Q 1.0980183837890625 0.03570000000000001 1.1041683837890626 0.03975000000000001 Q 1.1073183837890626 0.038250000000000006 1.1094183837890625 0.03585000000000001 Q 1.1095683837890626 0.03570000000000001 1.1098683837890626 0.03570000000000001 Q 1.1101683837890626 0.03570000000000001 1.1105433837890626 0.035925000000000006 Q 1.1109183837890626 0.03615000000000001 1.1109183837890626 0.03645000000000001 L 1.1109183837890626 0.0792 Q 1.1109183837890626 0.08385000000000001 1.1119683837890626 0.08580000000000002 Q 1.1130183837890626 0.08775000000000001 1.1154183837890626 0.08775000000000001 Q 1.1179683837890626 0.08775000000000001 1.1221683837890626 0.08595000000000001 L 1.1223183837890625 0.08595000000000001 M 1.0987683837890625 0.08385000000000001 L 1.0987683837890625 0.08325000000000002 L 1.0987683837890625 0.05190000000000001 Q 1.0987683837890625 0.046200000000000005 1.0950183837890626 0.04245000000000001 Q 1.0912683837890627 0.038700000000000005 1.0857183837890625 0.038700000000000005 Q 1.0779183837890625 0.038700000000000005 1.0731933837890626 0.04635000000000001 Q 1.0684683837890625 0.054000000000000006 1.0684683837890625 0.06615000000000001 Q 1.0684683837890625 0.07740000000000001 1.0725933837890627 0.08385000000000001 Q 1.0767183837890626 0.09030000000000002 1.0839183837890625 0.09030000000000002 Q 1.0905183837890626 0.09030000000000002 1.0987683837890625 0.08385000000000001 M 1.2367669189453125 0.09450000000000001 Q 1.2367669189453125 0.09540000000000001 1.2361669189453126 0.09540000000000001 Q 1.2324169189453125 0.09540000000000001 1.2301669189453126 0.09525000000000002 L 1.2216169189453125 0.09510000000000002 L 1.2130669189453125 0.09525000000000002 Q 1.2108169189453126 0.09540000000000001 1.2070669189453125 0.09540000000000001 Q 1.2066169189453124 0.09540000000000001 1.2066169189453124 0.09450000000000001 Q 1.2066169189453124 0.09360000000000002 1.2070669189453125 0.09360000000000002 Q 1.2120169189453125 0.09360000000000002 1.2138169189453125 0.091425 Q 1.2156169189453125 0.08925000000000001 1.2156169189453125 0.08325000000000002 L 1.2156169189453125 0.06090000000000001 Q 1.2156169189453125 0.05250000000000001 1.2126919189453125 0.04845000000000001 Q 1.2097669189453124 0.04440000000000001 1.2037669189453126 0.04440000000000001 Q 1.1997169189453125 0.04440000000000001 1.1956669189453124 0.04635000000000001 Q 1.1916169189453125 0.04830000000000001 1.1886169189453124 0.05160000000000001 L 1.1886169189453124 0.05310000000000001 L 1.1886169189453124 0.08325000000000002 Q 1.1886169189453124 0.08940000000000001 1.1903419189453126 0.09150000000000001 Q 1.1920669189453126 0.09360000000000002 1.1971669189453125 0.09360000000000002 Q 1.1976169189453125 0.09360000000000002 1.1976169189453125 0.09450000000000001 Q 1.1976169189453125 0.09540000000000001 1.1971669189453125 0.09540000000000001 Q 1.1934169189453125 0.09540000000000001 1.1911669189453125 0.09525000000000002 L 1.1824669189453125 0.09510000000000002 L 1.1739169189453125 0.09525000000000002 Q 1.1716669189453126 0.09540000000000001 1.1679169189453125 0.09540000000000001 Q 1.1674669189453124 0.09540000000000001 1.1674669189453124 0.09450000000000001 Q 1.1674669189453124 0.09360000000000002 1.1679169189453125 0.09360000000000002 Q 1.1730169189453126 0.09360000000000002 1.1747419189453125 0.09150000000000001 Q 1.1764669189453125 0.08940000000000001 1.1764669189453125 0.08325000000000002 L 1.1764669189453125 0.06090000000000001 Q 1.1764669189453125 0.05250000000000001 1.1735419189453125 0.04845000000000001 Q 1.1706169189453126 0.04440000000000001 1.1646169189453126 0.04440000000000001 Q 1.1608669189453125 0.04440000000000001 1.1569669189453125 0.046200000000000005 Q 1.1530669189453124 0.04800000000000001 1.1500669189453125 0.05100000000000001 L 1.1500669189453125 0.08325000000000002 Q 1.1500669189453125 0.08940000000000001 1.1517169189453125 0.09150000000000001 Q 1.1533669189453124 0.09360000000000002 1.1584669189453125 0.09360000000000002 Q 1.1589169189453126 0.09360000000000002 1.1589169189453126 0.09450000000000001 Q 1.1589169189453126 0.09540000000000001 1.1584669189453125 0.09540000000000001 Q 1.1547169189453126 0.09540000000000001 1.1526169189453126 0.09525000000000002 L 1.1439169189453124 0.09510000000000002 L 1.1352169189453125 0.09525000000000002 Q 1.1331169189453125 0.09540000000000001 1.1293669189453126 0.09540000000000001 Q 1.1289169189453125 0.09540000000000001 1.1289169189453125 0.09450000000000001 Q 1.1289169189453125 0.09360000000000002 1.1293669189453126 0.09360000000000002 Q 1.1344669189453125 0.09360000000000002 1.1361169189453124 0.09150000000000001 Q 1.1377669189453126 0.08940000000000001 1.1377669189453126 0.08325000000000002 L 1.1377669189453126 0.05460000000000001 Q 1.1377669189453126 0.04980000000000001 1.1366419189453125 0.04755000000000001 Q 1.1355169189453125 0.04530000000000001 1.1329669189453124 0.04530000000000001 Q 1.1307169189453126 0.04530000000000001 1.1254669189453126 0.04755000000000001 L 1.1253169189453125 0.04755000000000001 Q 1.1247169189453126 0.04755000000000001 1.1244169189453126 0.04680000000000001 Q 1.1241169189453124 0.04605000000000001 1.1245669189453125 0.04590000000000001 L 1.1442169189453124 0.036300000000000006 Q 1.1451169189453125 0.036000000000000004 1.1452669189453124 0.036000000000000004 Q 1.1467669189453125 0.036000000000000004 1.1483419189453126 0.03937500000000001 Q 1.1499169189453124 0.04275000000000001 1.1500669189453125 0.048150000000000005 Q 1.1601169189453124 0.03585000000000001 1.1719669189453126 0.03585000000000001 Q 1.1788669189453125 0.03585000000000001 1.1830669189453125 0.03922500000000001 Q 1.1872669189453124 0.042600000000000006 1.1883169189453124 0.04905000000000001 Q 1.1989669189453125 0.03585000000000001 1.2111169189453126 0.03585000000000001 Q 1.2190669189453125 0.03585000000000001 1.2233419189453125 0.04042500000000001 Q 1.2276169189453126 0.045000000000000005 1.2276169189453126 0.05430000000000001 L 1.2276169189453126 0.08325000000000002 Q 1.2276169189453126 0.08940000000000001 1.2293419189453125 0.09150000000000001 Q 1.2310669189453125 0.09360000000000002 1.2361669189453126 0.09360000000000002 Q 1.2367669189453125 0.09360000000000002 1.2367669189453125 0.09450000000000001 M 1.2958628173828124 0.08595000000000001 Q 1.2961628173828124 0.08595000000000001 1.2965378173828124 0.08655000000000002 Q 1.2969128173828124 0.08715 1.2966128173828124 0.08745000000000001 Q 1.2912128173828124 0.09255000000000001 1.2856628173828124 0.09487500000000001 Q 1.2801128173828125 0.09720000000000001 1.2735128173828125 0.09720000000000001 Q 1.2642128173828124 0.09720000000000001 1.2575378173828125 0.09322500000000002 Q 1.2508628173828125 0.08925000000000001 1.2473378173828125 0.08257500000000001 Q 1.2438128173828125 0.07590000000000001 1.2438128173828125 0.06825 Q 1.2438128173828125 0.05940000000000001 1.2482378173828124 0.052050000000000006 Q 1.2526628173828125 0.04470000000000001 1.2603878173828125 0.04042500000000001 Q 1.2681128173828125 0.03615000000000001 1.2774128173828125 0.03615000000000001 Q 1.2862628173828126 0.03615000000000001 1.2910628173828125 0.04012500000000001 Q 1.2958628173828124 0.04410000000000001 1.2958628173828124 0.05100000000000001 Q 1.2958628173828124 0.05505000000000001 1.2942128173828125 0.05505000000000001 L 1.2859628173828124 0.05505000000000001 L 1.2577628173828124 0.05535000000000001 Q 1.2573128173828125 0.05850000000000001 1.2573128173828125 0.06210000000000001 Q 1.2573128173828125 0.07515000000000001 1.2633878173828124 0.082875 Q 1.2694628173828124 0.09060000000000001 1.2802628173828126 0.09060000000000001 Q 1.2841628173828123 0.09060000000000001 1.2882128173828125 0.08947500000000001 Q 1.2922628173828126 0.08835000000000001 1.2955628173828124 0.08610000000000001 L 1.2958628173828124 0.08595000000000001 M 1.2634628173828124 0.04275000000000001 Q 1.2598628173828124 0.04635000000000001 1.2583628173828125 0.05265000000000001 L 1.2817628173828124 0.05220000000000001 Q 1.2814628173828124 0.04605000000000001 1.2790628173828125 0.042600000000000006 Q 1.2766628173828125 0.039150000000000004 1.2720128173828125 0.039150000000000004 Q 1.2670628173828125 0.039150000000000004 1.2634628173828124 0.04275000000000001" fill="#ffffff" fill-rule="nonzero"></path></g><g></g></g><defs><clipPath id="SvgjsClipPath188252"><path d=" M -4.98341473281423 -11.517938987112835 h 11.267938987112835 v 11.267938987112835 h -11.267938987112835 Z"></path></clipPath><clipPath id="SvgjsClipPath1882503982f61a-4dbe-4aed-8262-0379e67b4f83"><path d=" M -4.98341473281423 -11.517938987112835 L 6.284524254298605 -11.517938987112835 L 6.284524254298605 -0.25 L -4.98341473281423 -0.25 Z"></path></clipPath></defs></svg>