<svg xmlns="http://www.w3.org/2000/svg" version="1.1" xmlns:xlink="http://www.w3.org/1999/xlink" viewBox="0 0 6.10008310546875 6.776036296354965"><g transform="matrix(0.8571428571428571,0,0,0.8571428571428571,0.8714404436383929,4.9074563390818415)"><g transform="matrix(1,0,0,1,0,0)" clip-path="url(#SvgjsClipPath126564)"><g clip-path="url(#SvgjsClipPath126562283c1a85-095b-4d47-8409-b2d8a237db38)"><path d=" M 3.7919703351179357 -4.6523557787768395 L 3.903129818532051 -4.567610430035385 L 0.4516828879710082 -0.8311109627985429 L 0.340523404556893 -0.9159003350977848 Z" fill="#ffffff" transform="matrix(1,0,0,1,0,0)" fill-rule="nonzero"></path></g><g clip-path="url(#SvgjsClipPath126562283c1a85-095b-4d47-8409-b2d8a237db38)"><path d=" M 0.3820376195507586 -3.9864554436790547 L 0.49319710296487385 -4.071244815978297 L 3.944644033525917 -0.334789372299241 L 3.8335285736695885 -0.25 Z" fill="#ffffff" transform="matrix(1,0,0,1,0,0)" fill-rule="nonzero"></path></g><g clip-path="url(#SvgjsClipPath126562283c1a85-095b-4d47-8409-b2d8a237db38)"><path d=" M 4.44505981489948 -4.6523557787768395 L 4.556219298313595 -4.567610430035385 L 0.6383427729911462 -0.32620477853062635 L 0.527183289577031 -0.41095012727208147 Z" fill="#ffffff" transform="matrix(1,0,0,1,0,0)" fill-rule="nonzero"></path></g><g clip-path="url(#SvgjsClipPath126562283c1a85-095b-4d47-8409-b2d8a237db38)"><path d=" M 0.5271392660192432 -4.567610430035385 L 0.6383427729911462 -4.6523557787768395 L 4.556439416102534 -0.41095012727208147 L 4.445279932688418 -0.32620477853062635 Z" fill="#ffffff" transform="matrix(1,0,0,1,0,0)" fill-rule="nonzero"></path></g><g clip-path="url(#SvgjsClipPath126562283c1a85-095b-4d47-8409-b2d8a237db38)"><path d=" M 4.631719699919618 -4.137280152659949 L 4.7428791833337325 -4.052402733245132 L 1.2914322527726905 -0.31603533668165174 L 1.1802727693585755 -0.40078068542310596 Z" fill="#ffffff" transform="matrix(1,0,0,1,0,0)" fill-rule="nonzero"></path></g><g clip-path="url(#SvgjsClipPath126562283c1a85-095b-4d47-8409-b2d8a237db38)"><path d=" M 1.1802287458007874 -4.567610430035385 L 1.2914322527726905 -4.6523557787768395 L 4.7428791833337325 -0.9159003350977848 L 4.631719699919618 -0.8311109627985429 Z" fill="#ffffff" transform="matrix(1,0,0,1,0,0)" fill-rule="nonzero"></path></g></g><g><path d=" M 0.315 0.12824999999999975 Q 0.2595 0.22799999999999976 0.2595 0.43049999999999977 L 0.2595 0.5234999999999997 Q 0.3375 0.5219999999999997 0.4335 0.5099999999999998 Q 0.438 0.5099999999999998 0.441 0.5212499999999998 Q 0.444 0.5324999999999998 0.444 0.5459999999999997 Q 0.444 0.5609999999999997 0.43875000000000003 0.5752499999999997 Q 0.4335 0.5894999999999997 0.429 0.5864999999999997 Q 0.34500000000000003 0.5654999999999998 0.2595 0.5609999999999997 L 0.2595 0.9674999999999998 Q 0.2595 1.0139999999999998 0.26925 1.0349999999999997 Q 0.279 1.0559999999999998 0.3075 1.0634999999999997 Q 0.336 1.0709999999999997 0.3975 1.0709999999999997 Q 0.4035 1.0709999999999997 0.4035 1.0799999999999998 Q 0.4035 1.0889999999999997 0.3975 1.0889999999999997 L 0.297 1.0874999999999997 Q 0.264 1.0859999999999999 0.1965 1.0859999999999999 L 0.108 1.0874999999999997 Q 0.0855 1.0889999999999997 0.043500000000000004 1.0889999999999997 Q 0.0375 1.0889999999999997 0.0375 1.0799999999999998 Q 0.0375 1.0709999999999997 0.043500000000000004 1.0709999999999997 Q 0.084 1.0709999999999997 0.10350000000000001 1.0627499999999996 Q 0.123 1.0544999999999998 0.1305 1.0334999999999996 Q 0.138 1.0124999999999997 0.138 0.9674999999999998 L 0.138 0.6299999999999997 Q 0.138 0.5804999999999997 0.11850000000000001 0.5669999999999997 Q 0.099 0.5534999999999998 0.0375 0.5534999999999998 Q 0.033 0.5534999999999998 0.033 0.5399999999999997 Q 0.033 0.5279999999999997 0.0375 0.5279999999999997 Q 0.093 0.5279999999999997 0.11325 0.5137499999999997 Q 0.1335 0.4994999999999997 0.135 0.46199999999999974 Q 0.14400000000000002 0.2204999999999997 0.23775000000000002 0.11024999999999974 Q 0.3315 -2.220446049250313e-16 0.507 -2.220446049250313e-16 Q 0.6015 -2.220446049250313e-16 0.6585 0.03224999999999967 Q 0.7155 0.06449999999999978 0.7155 0.11399999999999977 Q 0.7155 0.14099999999999968 0.6990000000000001 0.15674999999999972 Q 0.6825 0.17249999999999976 0.651 0.17249999999999976 Q 0.6225 0.17249999999999976 0.6052500000000001 0.1559999999999997 Q 0.588 0.13949999999999974 0.5685 0.10799999999999976 Q 0.5475 0.06899999999999973 0.52425 0.04874999999999963 Q 0.501 0.028499999999999748 0.4575 0.028499999999999748 Q 0.3705 0.028499999999999748 0.315 0.12824999999999975 M 0.8175 1.0799999999999998 Q 0.8175 1.0889999999999997 0.8115 1.0889999999999997 Q 0.774 1.0889999999999997 0.7515000000000001 1.0874999999999997 L 0.666 1.0859999999999999 L 0.5805 1.0874999999999997 Q 0.558 1.0889999999999997 0.5205 1.0889999999999997 Q 0.516 1.0889999999999997 0.516 1.0799999999999998 Q 0.516 1.0709999999999997 0.5205 1.0709999999999997 Q 0.5700000000000001 1.0709999999999997 0.588 1.0492499999999998 Q 0.606 1.0274999999999999 0.606 0.9674999999999998 L 0.606 0.6944999999999997 Q 0.606 0.6419999999999997 0.5962500000000001 0.6187499999999997 Q 0.5865 0.5954999999999997 0.561 0.5954999999999997 Q 0.5415 0.5954999999999997 0.4995 0.6149999999999998 L 0.498 0.6149999999999998 Q 0.492 0.6149999999999998 0.489 0.6074999999999997 Q 0.486 0.5999999999999998 0.4905 0.5969999999999998 L 0.7065 0.4964999999999997 Q 0.708 0.4949999999999998 0.711 0.4949999999999998 Q 0.717 0.4949999999999998 0.72375 0.5017499999999997 Q 0.7305 0.5084999999999997 0.7305 0.5129999999999997 Q 0.7305 0.5309999999999997 0.729 0.5444999999999998 Q 0.726 0.6074999999999997 0.726 0.6929999999999997 L 0.726 0.9674999999999998 Q 0.726 1.0289999999999997 0.74325 1.0499999999999998 Q 0.7605000000000001 1.0709999999999997 0.8115 1.0709999999999997 Q 0.8175 1.0709999999999997 0.8175 1.0799999999999998 M 1.61245458984375 1.0799999999999998 Q 1.61245458984375 1.0889999999999997 1.60795458984375 1.0889999999999997 Q 1.57045458984375 1.0889999999999997 1.54945458984375 1.0874999999999997 L 1.46245458984375 1.0859999999999999 L 1.3769545898437499 1.0874999999999997 Q 1.35445458984375 1.0889999999999997 1.31695458984375 1.0889999999999997 Q 1.31245458984375 1.0889999999999997 1.31245458984375 1.0799999999999998 Q 1.31245458984375 1.0709999999999997 1.31695458984375 1.0709999999999997 Q 1.36795458984375 1.0709999999999997 1.38445458984375 1.0499999999999998 Q 1.4009545898437499 1.0289999999999997 1.4009545898437499 0.9674999999999998 L 1.4009545898437499 0.7424999999999997 Q 1.4009545898437499 0.6584999999999998 1.37020458984375 0.6187499999999997 Q 1.33945458984375 0.5789999999999997 1.27345458984375 0.5789999999999997 Q 1.23445458984375 0.5789999999999997 1.19395458984375 0.5969999999999998 Q 1.1534545898437498 0.6149999999999998 1.12045458984375 0.6449999999999998 L 1.12045458984375 0.9674999999999998 Q 1.12045458984375 1.0289999999999997 1.13695458984375 1.0499999999999998 Q 1.1534545898437498 1.0709999999999997 1.20445458984375 1.0709999999999997 Q 1.20895458984375 1.0709999999999997 1.20895458984375 1.0799999999999998 Q 1.20895458984375 1.0889999999999997 1.20445458984375 1.0889999999999997 Q 1.16695458984375 1.0889999999999997 1.14595458984375 1.0874999999999997 L 1.05895458984375 1.0859999999999999 L 0.9719545898437499 1.0874999999999997 Q 0.9509545898437499 1.0889999999999997 0.9134545898437499 1.0889999999999997 Q 0.90895458984375 1.0889999999999997 0.90895458984375 1.0799999999999998 Q 0.90895458984375 1.0709999999999997 0.9134545898437499 1.0709999999999997 Q 0.96445458984375 1.0709999999999997 0.98095458984375 1.0499999999999998 Q 0.9974545898437499 1.0289999999999997 0.9974545898437499 0.9674999999999998 L 0.9974545898437499 0.6809999999999997 Q 0.9974545898437499 0.6329999999999998 0.9862045898437499 0.6104999999999997 Q 0.9749545898437499 0.5879999999999997 0.94945458984375 0.5879999999999997 Q 0.9269545898437499 0.5879999999999997 0.8744545898437499 0.6104999999999997 L 0.87295458984375 0.6104999999999997 Q 0.86695458984375 0.6104999999999997 0.86395458984375 0.6029999999999998 Q 0.86095458984375 0.5954999999999997 0.8654545898437499 0.5939999999999998 L 1.06195458984375 0.4979999999999998 Q 1.07095458984375 0.4949999999999998 1.0724545898437499 0.4949999999999998 Q 1.08745458984375 0.4949999999999998 1.10320458984375 0.5287499999999997 Q 1.1189545898437498 0.5624999999999998 1.12045458984375 0.6164999999999997 Q 1.2254545898437499 0.49199999999999977 1.3484545898437499 0.49199999999999977 Q 1.43095458984375 0.49199999999999977 1.47745458984375 0.5422499999999998 Q 1.52395458984375 0.5924999999999998 1.52395458984375 0.6779999999999997 L 1.52395458984375 0.9674999999999998 Q 1.52395458984375 1.0289999999999997 1.5404545898437498 1.0499999999999998 Q 1.55695458984375 1.0709999999999997 1.60795458984375 1.0709999999999997 Q 1.61245458984375 1.0709999999999997 1.61245458984375 1.0799999999999998 M 1.729469970703125 1.0829999999999997 Q 1.706969970703125 1.0604999999999998 1.706969970703125 1.0229999999999997 Q 1.706969970703125 0.9869999999999998 1.729469970703125 0.9652499999999997 Q 1.7519699707031249 0.9434999999999998 1.789469970703125 0.9434999999999998 Q 1.828469970703125 0.9434999999999998 1.8494699707031248 0.9652499999999997 Q 1.870469970703125 0.9869999999999998 1.870469970703125 1.0229999999999997 Q 1.870469970703125 1.0619999999999998 1.8494699707031248 1.0837499999999998 Q 1.828469970703125 1.1054999999999997 1.789469970703125 1.1054999999999997 Q 1.7519699707031249 1.1054999999999997 1.729469970703125 1.0829999999999997 M 2.419439208984375 0.9929999999999998 Q 2.423939208984375 0.9929999999999998 2.4276892089843747 0.9989999999999998 Q 2.431439208984375 1.0049999999999997 2.4269392089843747 1.0079999999999998 Q 2.3714392089843748 1.0604999999999998 2.3219392089843747 1.0837499999999998 Q 2.272439208984375 1.1069999999999998 2.2169392089843747 1.1069999999999998 Q 2.152439208984375 1.1069999999999998 2.108189208984375 1.0762499999999997 Q 2.0639392089843747 1.0454999999999997 2.0639392089843747 0.9734999999999997 L 2.0639392089843747 0.6344999999999997 Q 2.0639392089843747 0.5849999999999997 2.048189208984375 0.5684999999999998 Q 2.032439208984375 0.5519999999999997 1.9874392089843749 0.5519999999999997 Q 1.9859392089843748 0.5519999999999997 1.9836892089843747 0.5482499999999997 Q 1.9814392089843749 0.5444999999999998 1.9814392089843749 0.5399999999999997 Q 1.9814392089843749 0.5354999999999998 1.9836892089843747 0.5317499999999997 Q 1.9859392089843748 0.5279999999999997 1.9874392089843749 0.5279999999999997 Q 2.128439208984375 0.5219999999999997 2.164439208984375 0.40649999999999975 Q 2.167439208984375 0.40049999999999975 2.177189208984375 0.40049999999999975 Q 2.186939208984375 0.40049999999999975 2.186939208984375 0.40649999999999975 L 2.186939208984375 0.5249999999999997 Q 2.257439208984375 0.5234999999999997 2.386439208984375 0.5099999999999998 Q 2.389439208984375 0.5099999999999998 2.3931892089843747 0.5212499999999998 Q 2.396939208984375 0.5324999999999998 2.396939208984375 0.5459999999999997 Q 2.396939208984375 0.5594999999999998 2.3916892089843746 0.5729999999999997 Q 2.386439208984375 0.5864999999999997 2.3804392089843747 0.5849999999999997 Q 2.296439208984375 0.5654999999999998 2.186939208984375 0.5609999999999997 L 2.186939208984375 0.9239999999999997 Q 2.186939208984375 0.9824999999999997 2.2161892089843747 1.0102499999999996 Q 2.245439208984375 1.0379999999999998 2.2979392089843746 1.0379999999999998 Q 2.360939208984375 1.0379999999999998 2.4164392089843747 0.9944999999999997 L 2.419439208984375 0.9929999999999998 M 2.9459018554687497 0.5174999999999997 Q 2.9774018554687496 0.5399999999999997 2.9774018554687496 0.5714999999999998 Q 2.9774018554687496 0.5999999999999998 2.96015185546875 0.6179999999999997 Q 2.9429018554687496 0.6359999999999997 2.91290185546875 0.6359999999999997 Q 2.89340185546875 0.6359999999999997 2.88065185546875 0.6277499999999998 Q 2.86790185546875 0.6194999999999997 2.85440185546875 0.6044999999999998 Q 2.8409018554687497 0.5909999999999997 2.83040185546875 0.5842499999999997 Q 2.81990185546875 0.5774999999999997 2.8049018554687497 0.5774999999999997 Q 2.78840185546875 0.5774999999999997 2.7696518554687497 0.5902499999999997 Q 2.75090185546875 0.6029999999999998 2.7119018554687497 0.6434999999999997 L 2.7119018554687497 0.9674999999999998 Q 2.7119018554687497 1.0094999999999998 2.7239018554687497 1.0312499999999998 Q 2.7359018554687498 1.0529999999999997 2.76440185546875 1.0619999999999998 Q 2.7929018554687497 1.0709999999999997 2.84840185546875 1.0709999999999997 Q 2.85440185546875 1.0709999999999997 2.85440185546875 1.0799999999999998 Q 2.85440185546875 1.0889999999999997 2.84840185546875 1.0889999999999997 Q 2.79890185546875 1.0889999999999997 2.7689018554687497 1.0874999999999997 L 2.6504018554687496 1.0859999999999999 L 2.56340185546875 1.0874999999999997 Q 2.54240185546875 1.0889999999999997 2.50490185546875 1.0889999999999997 Q 2.5004018554687497 1.0889999999999997 2.5004018554687497 1.0799999999999998 Q 2.5004018554687497 1.0709999999999997 2.50490185546875 1.0709999999999997 Q 2.5559018554687496 1.0709999999999997 2.5724018554687498 1.0499999999999998 Q 2.58890185546875 1.0289999999999997 2.58890185546875 0.9674999999999998 L 2.58890185546875 0.6809999999999997 Q 2.58890185546875 0.6329999999999998 2.57765185546875 0.6104999999999997 Q 2.56640185546875 0.5879999999999997 2.54090185546875 0.5879999999999997 Q 2.51840185546875 0.5879999999999997 2.4659018554687497 0.6104999999999997 L 2.4644018554687497 0.6104999999999997 Q 2.45840185546875 0.6104999999999997 2.45540185546875 0.6029999999999998 Q 2.4524018554687497 0.5954999999999997 2.45690185546875 0.5939999999999998 L 2.6534018554687497 0.4979999999999998 Q 2.6624018554687496 0.4949999999999998 2.6639018554687497 0.4949999999999998 Q 2.67890185546875 0.4949999999999998 2.69390185546875 0.5272499999999998 Q 2.7089018554687496 0.5594999999999998 2.7119018554687497 0.6119999999999997 Q 2.7704018554687497 0.5459999999999997 2.80940185546875 0.5204999999999997 Q 2.84840185546875 0.4949999999999998 2.87990185546875 0.4949999999999998 Q 2.91440185546875 0.4949999999999998 2.9459018554687497 0.5174999999999997 M 3.7094011230468746 0.9944999999999997 Q 3.715401123046875 0.9944999999999997 3.719151123046875 1.0012499999999998 Q 3.7229011230468747 1.0079999999999998 3.718401123046875 1.0109999999999997 L 3.5219011230468746 1.1054999999999997 Q 3.5189011230468745 1.1069999999999998 3.514401123046875 1.1069999999999998 Q 3.5009011230468747 1.1069999999999998 3.4896511230468747 1.0769999999999997 Q 3.4784011230468748 1.0469999999999997 3.4754011230468747 0.9989999999999998 Q 3.4244011230468745 1.0484999999999998 3.3719011230468747 1.0777499999999998 Q 3.319401123046875 1.1069999999999998 3.256401123046875 1.1069999999999998 Q 3.1964011230468747 1.1069999999999998 3.1454011230468746 1.0762499999999997 Q 3.094401123046875 1.0454999999999997 3.0644011230468746 0.9862499999999997 Q 3.034401123046875 0.9269999999999997 3.034401123046875 0.8444999999999998 Q 3.034401123046875 0.7379999999999998 3.084651123046875 0.6577499999999997 Q 3.1349011230468746 0.5774999999999997 3.2151511230468746 0.5347499999999997 Q 3.295401123046875 0.49199999999999977 3.3824011230468747 0.49199999999999977 Q 3.4664011230468748 0.49199999999999977 3.527901123046875 0.5324999999999998 Q 3.5594011230468747 0.5174999999999997 3.5804011230468746 0.4934999999999997 Q 3.5819011230468747 0.49199999999999977 3.584901123046875 0.49199999999999977 Q 3.5879011230468745 0.49199999999999977 3.5916511230468746 0.49424999999999975 Q 3.5954011230468748 0.4964999999999997 3.5954011230468748 0.4994999999999997 L 3.5954011230468748 0.9269999999999997 Q 3.5954011230468748 0.9734999999999997 3.6059011230468747 0.9929999999999998 Q 3.6164011230468747 1.0124999999999997 3.6404011230468747 1.0124999999999997 Q 3.6659011230468748 1.0124999999999997 3.7079011230468746 0.9944999999999997 L 3.7094011230468746 0.9944999999999997 M 3.4739011230468746 0.9734999999999997 L 3.4739011230468746 0.9674999999999998 L 3.4739011230468746 0.6539999999999997 Q 3.4739011230468746 0.5969999999999998 3.436401123046875 0.5594999999999998 Q 3.398901123046875 0.5219999999999997 3.3434011230468745 0.5219999999999997 Q 3.2654011230468747 0.5219999999999997 3.2181511230468747 0.5984999999999998 Q 3.1709011230468747 0.6749999999999997 3.1709011230468747 0.7964999999999998 Q 3.1709011230468747 0.9089999999999998 3.212151123046875 0.9734999999999997 Q 3.2534011230468747 1.0379999999999998 3.3254011230468747 1.0379999999999998 Q 3.3914011230468746 1.0379999999999998 3.4739011230468746 0.9734999999999997 M 3.9021364746093745 1.0642499999999997 Q 3.8338864746093746 1.0214999999999996 3.8008864746093747 0.9532499999999997 Q 3.7678864746093748 0.8849999999999998 3.7678864746093748 0.8099999999999997 Q 3.7678864746093748 0.7154999999999998 3.8188864746093745 0.6442499999999998 Q 3.8698864746093746 0.5729999999999997 3.9501364746093746 0.5347499999999997 Q 4.030386474609375 0.4964999999999997 4.1128864746093745 0.4964999999999997 Q 4.1833864746093745 0.4964999999999997 4.240386474609375 0.5249999999999997 Q 4.297386474609374 0.5534999999999998 4.297386474609374 0.6014999999999997 Q 4.297386474609374 0.6269999999999998 4.2778864746093745 0.6457499999999997 Q 4.258386474609375 0.6644999999999998 4.223886474609374 0.6644999999999998 Q 4.166886474609375 0.6644999999999998 4.141386474609375 0.5969999999999998 Q 4.126386474609375 0.5594999999999998 4.109886474609374 0.5437499999999997 Q 4.093386474609375 0.5279999999999997 4.057386474609375 0.5279999999999997 Q 3.9868864746093746 0.5279999999999997 3.945636474609375 0.5917499999999998 Q 3.9043864746093746 0.6554999999999997 3.9043864746093746 0.7619999999999998 Q 3.9043864746093746 0.8864999999999997 3.9621364746093746 0.9637499999999998 Q 4.0198864746093745 1.0409999999999997 4.142886474609375 1.0409999999999997 Q 4.184886474609375 1.0409999999999997 4.217886474609375 1.0304999999999997 Q 4.250886474609374 1.0199999999999998 4.289886474609375 0.9974999999999997 L 4.291386474609375 0.9974999999999997 Q 4.295886474609374 0.9974999999999997 4.2996364746093745 1.0019999999999998 Q 4.303386474609375 1.0064999999999997 4.3003864746093745 1.0094999999999998 Q 4.244886474609375 1.0589999999999997 4.190886474609375 1.0829999999999997 Q 4.1368864746093745 1.1069999999999998 4.067886474609375 1.1069999999999998 Q 3.9703864746093744 1.1069999999999998 3.9021364746093745 1.0642499999999997 M 5.089360839843749 1.0799999999999998 Q 5.089360839843749 1.0889999999999997 5.084860839843749 1.0889999999999997 Q 5.0473608398437495 1.0889999999999997 5.0248608398437495 1.0874999999999997 L 4.93936083984375 1.0859999999999999 L 4.82686083984375 1.0874999999999997 Q 4.80136083984375 1.0889999999999997 4.757860839843749 1.0889999999999997 Q 4.75486083984375 1.0889999999999997 4.75486083984375 1.0799999999999998 Q 4.75486083984375 1.0709999999999997 4.757860839843749 1.0709999999999997 Q 4.81936083984375 1.0709999999999997 4.81936083984375 1.0394999999999996 Q 4.81936083984375 1.0259999999999998 4.807360839843749 1.0094999999999998 L 4.63186083984375 0.7784999999999997 L 4.58686083984375 0.8174999999999997 L 4.58686083984375 0.9674999999999998 Q 4.58686083984375 1.0289999999999997 4.60411083984375 1.0499999999999998 Q 4.621360839843749 1.0709999999999997 4.6723608398437495 1.0709999999999997 Q 4.67836083984375 1.0709999999999997 4.67836083984375 1.0799999999999998 Q 4.67836083984375 1.0889999999999997 4.6723608398437495 1.0889999999999997 Q 4.63486083984375 1.0889999999999997 4.61236083984375 1.0874999999999997 L 4.526860839843749 1.0859999999999999 L 4.44136083984375 1.0874999999999997 Q 4.41886083984375 1.0889999999999997 4.38136083984375 1.0889999999999997 Q 4.37686083984375 1.0889999999999997 4.37686083984375 1.0799999999999998 Q 4.37686083984375 1.0709999999999997 4.38136083984375 1.0709999999999997 Q 4.430860839843749 1.0709999999999997 4.44886083984375 1.0492499999999998 Q 4.46686083984375 1.0274999999999999 4.46686083984375 0.9674999999999998 L 4.46686083984375 0.20099999999999973 Q 4.46686083984375 0.14849999999999974 4.456360839843749 0.12524999999999975 Q 4.44586083984375 0.10199999999999976 4.42186083984375 0.10199999999999976 Q 4.39936083984375 0.10199999999999976 4.360360839843749 0.11999999999999977 L 4.358860839843749 0.11999999999999977 Q 4.35436083984375 0.11999999999999977 4.35061083984375 0.11174999999999968 Q 4.34686083984375 0.1034999999999997 4.35136083984375 0.10199999999999976 L 4.55986083984375 0.0029999999999996696 L 4.56736083984375 0.0014999999999996128 Q 4.573360839843749 0.0014999999999996128 4.58011083984375 0.007499999999999618 Q 4.58686083984375 0.013499999999999623 4.58686083984375 0.017999999999999794 L 4.58686083984375 0.7859999999999998 L 4.74736083984375 0.6419999999999997 Q 4.7893608398437495 0.6059999999999998 4.7893608398437495 0.5714999999999998 Q 4.7893608398437495 0.5519999999999997 4.77211083984375 0.5399999999999997 Q 4.75486083984375 0.5279999999999997 4.72336083984375 0.5279999999999997 Q 4.7188608398437495 0.5279999999999997 4.7188608398437495 0.5189999999999997 Q 4.7188608398437495 0.5099999999999998 4.72336083984375 0.5099999999999998 Q 4.7653608398437495 0.5099999999999998 4.7893608398437495 0.5114999999999997 L 4.903360839843749 0.5129999999999997 L 5.00986083984375 0.5114999999999997 Q 5.03086083984375 0.5099999999999998 5.066860839843749 0.5099999999999998 Q 5.0713608398437495 0.5099999999999998 5.0713608398437495 0.5189999999999997 Q 5.0713608398437495 0.5279999999999997 5.066860839843749 0.5279999999999997 Q 5.00536083984375 0.5279999999999997 4.927360839843749 0.5587499999999997 Q 4.84936083984375 0.5894999999999997 4.783360839843749 0.6479999999999997 L 4.7188608398437495 0.7034999999999998 L 4.91836083984375 0.9674999999999998 Q 4.96036083984375 1.0229999999999997 5.0008608398437495 1.0469999999999997 Q 5.041360839843749 1.0709999999999997 5.084860839843749 1.0709999999999997 Q 5.089360839843749 1.0709999999999997 5.089360839843749 1.0799999999999998" fill="#ffffff" fill-rule="nonzero"></path></g><g></g></g><defs><clipPath id="SvgjsClipPath126564"><path d=" M 0.340523404556893 -4.6523557787768395 h 4.4023557787768395 v 4.4023557787768395 h -4.4023557787768395 Z"></path></clipPath><clipPath id="SvgjsClipPath126562283c1a85-095b-4d47-8409-b2d8a237db38"><path d=" M 0.340523404556893 -4.6523557787768395 L 4.7428791833337325 -4.6523557787768395 L 4.7428791833337325 -0.25 L 0.340523404556893 -0.25 Z"></path></clipPath></defs></svg>